{"asset" : {"generator" : "Khronos glTF Blender I/O v3.4.50","version" : "2.0"},"scene" : 0,"scenes" : [{"name" : "Scene","nodes" : [0]}],"nodes" : [{"mesh" : 0,"name" : "Cube"}],"materials" : [{"doubleSided" : true,
            "name" : "Material",
            "pbrMetallicRoughness" : {
                "baseColorFactor" : [
                    0.8000000715255737,
                    0.09744942933320999,
                    0.06699994206428528,
                    1
                ],
                "metallicFactor" : 0,
                "roughnessFactor" : 0.5
            }
        }
    ],
    "meshes" : [
        {
            "name" : "Cube",
            "primitives" : [
                {
                    "attributes" : {
                        "POSITION" : 0,
                        "TEXCOORD_0" : 1,
                        "NORMAL" : 2
                    },
                    "indices" : 3,
                    "material" : 0
                }
            ]
        }
    ],
    "accessors" : [
        {
            "bufferView" : 0,
            "componentType" : 5126,
            "count" : 243,
            "max" : [
                4.983153343200684,
                2.431774139404297,
                7.592694282531738
            ],
            "min" : [
                -5.017332077026367,
                -1,
                -1
            ],
            "type" : "VEC3"
        },
        {
            "bufferView" : 1,
            "componentType" : 5126,
            "count" : 243,
            "type" : "VEC2"
        },
        {
            "bufferView" : 2,
            "componentType" : 5126,
            "count" : 243,
            "type" : "VEC3"
        },
        {
            "bufferView" : 3,
            "componentType" : 5123,
            "count" : 537,
            "type" : "SCALAR"
        }
    ],
    "bufferViews" : [
        {
            "buffer" : 0,
            "byteLength" : 2916,
            "byteOffset" : 0,
            "target" : 34962
        },
        {
            "buffer" : 0,
            "byteLength" : 1944,
            "byteOffset" : 2916,
            "target" : 34962
        },
        {
            "buffer" : 0,
            "byteLength" : 2916,
            "byteOffset" : 4860,
            "target" : 34962
        },
        {
            "buffer" : 0,
            "byteLength" : 1074,
            "byteOffset" : 7776,
            "target" : 34963
        }
    ],
    "buffers" : [
        {
            "byteLength" : 8852,
            "uri" : "data:application/octet-stream;base64,"
        }
    ]
}
